<svg width="40" height="40" viewBox="0 0 40 40" fill="none" xmlns="http://www.w3.org/2000/svg">
<path fill-rule="evenodd" clip-rule="evenodd" d="M29.6111 32.565V10.4546C29.6185 9.59868 29.2853 8.77495 28.6852 8.16463C28.085 7.55429 27.2671 7.20738 26.4111 7.2002H13.6112C12.7553 7.20738 11.9373 7.55429 11.3371 8.16463C10.737 8.77495 10.4039 9.59868 10.4112 10.4546V32.565C10.3351 33.2034 10.6486 33.8253 11.207 34.144C11.7654 34.4626 12.4603 34.416 12.9712 34.0258L19.0511 28.7762C19.5993 28.2815 20.4327 28.2815 20.9807 28.7762L27.0513 34.0274C27.5623 34.418 28.2577 34.4645 28.8162 34.1453C29.3748 33.8263 29.6881 33.2037 29.6111 32.565Z" stroke="#F2EDFB" stroke-width="2" stroke-linecap="round" stroke-linejoin="round"/>
</svg>
