<svg width="40" height="40" viewBox="0 0 40 40" fill="none" xmlns="http://www.w3.org/2000/svg">
<path d="M25.833 9.16616L30.547 13.8802M5 34.9991L5.07908 34.4454C5.35893 32.4866 5.49887 31.5071 5.81715 30.5926C6.09958 29.7811 6.4854 29.0094 6.9651 28.2968C7.50568 27.4934 8.20532 26.7938 9.60457 25.3946L29.0178 5.9812C30.3197 4.67945 32.4302 4.67945 33.732 5.9812C35.0337 7.28295 35.0337 9.39349 33.732 10.6952L13.9624 30.4648C12.693 31.7343 12.0583 32.3689 11.3353 32.8736C10.6936 33.3216 10.0016 33.6928 9.2733 33.9794C8.45285 34.3024 7.57292 34.4799 5.81322 34.8349L5 34.9991Z" stroke="#F1ECFA" stroke-width="2.15447" stroke-linecap="round" stroke-linejoin="round"/>
</svg>
