<svg width="681" height="249" viewBox="0 0 681 249" fill="none" xmlns="http://www.w3.org/2000/svg">
<path d="M184 8.5L16 29C7.16344 29 0 36.1634 0 45V173C0 181.837 7.16344 189 16 189H184C192.837 189 200 181.837 200 173V25.5C200 16.6634 192.837 8.5 184 8.5Z" fill="url(#paint0_linear_183_1258)"/>
<path d="M204 49H36C27.1634 49 20 56.1634 20 65V193C20 201.837 27.1634 209 36 209H204C212.837 209 220 201.837 220 193V65C220 56.1634 212.837 49 204 49Z" fill="url(#paint1_linear_183_1258)"/>
<path d="M164 89H56C52.6863 89 50 91.6863 50 95C50 98.3137 52.6863 101 56 101H164C167.314 101 170 98.3137 170 95C170 91.6863 167.314 89 164 89Z" fill="white"/>
<path d="M124 119H56C52.6863 119 50 121.686 50 125C50 128.314 52.6863 131 56 131H124C127.314 131 130 128.314 130 125C130 121.686 127.314 119 124 119Z" fill="white"/>
<path d="M144 149H56C52.6863 149 50 151.686 50 155C50 158.314 52.6863 161 56 161H144C147.314 161 150 158.314 150 155C150 151.686 147.314 149 144 149Z" fill="white"/>
<path d="M316.123 51.75V173.552H380.863V197H288.11V51.75H316.123ZM447.493 198.453C437.118 198.453 427.988 196.17 420.103 191.605C412.218 187.04 406.062 180.677 401.635 172.515C397.347 164.353 395.203 154.947 395.203 144.295C395.203 134.058 397.347 124.997 401.635 117.112C405.924 109.227 411.872 103.072 419.48 98.645C427.227 94.08 436.011 91.7975 445.833 91.7975C455.793 91.7975 464.577 93.9417 472.185 98.23C479.794 102.518 485.673 108.536 489.823 116.282C494.111 123.891 496.255 132.813 496.255 143.05C496.255 144.572 496.117 146.301 495.84 148.237C495.702 150.036 495.494 151.972 495.218 154.047H423.838C424.391 158.474 425.774 162.278 427.988 165.46C430.339 168.503 433.175 170.924 436.495 172.722C439.954 174.382 443.827 175.212 448.115 175.212C453.234 175.212 457.799 174.175 461.81 172.1C465.96 169.887 468.934 167.051 470.733 163.592L494.388 170.647C490.238 179.501 484.013 186.348 475.713 191.19C467.551 196.032 458.144 198.453 447.493 198.453ZM467.205 134.75C467.067 130.877 466.029 127.418 464.093 124.375C462.156 121.193 459.597 118.772 456.415 117.112C453.234 115.314 449.706 114.415 445.833 114.415C442.374 114.415 439.124 115.314 436.08 117.112C433.037 118.911 430.409 121.332 428.195 124.375C426.12 127.28 424.737 130.738 424.045 134.75H467.205ZM510.899 93.25H541.609L562.566 125.205L583.731 93.25H614.441L577.921 144.917L614.441 197H583.731L562.566 164.837L541.609 197H510.899L547.211 144.917L510.899 93.25ZM637.858 93.25H664.418V197H637.858V93.25ZM651.345 79.97C646.365 79.97 642.284 78.4483 639.103 75.405C635.921 72.2233 634.33 68.35 634.33 63.785C634.33 59.22 635.921 55.4158 639.103 52.3725C642.284 49.1908 646.365 47.6 651.345 47.6C656.049 47.6 659.991 49.1908 663.173 52.3725C666.493 55.4158 668.153 59.22 668.153 63.785C668.153 68.35 666.493 72.2233 663.173 75.405C659.991 78.4483 656.049 79.97 651.345 79.97Z" fill="#7C3AED"/>
<defs>
<linearGradient id="paint0_linear_183_1258" x1="80.5" y1="22.0375" x2="181.824" y2="178.424" gradientUnits="userSpaceOnUse">
<stop stop-color="#B596EA"/>
<stop offset="1" stop-color="#AC87EA"/>
</linearGradient>
<linearGradient id="paint1_linear_183_1258" x1="100.5" y1="61" x2="185.5" y2="209" gradientUnits="userSpaceOnUse">
<stop stop-color="#7C3AED"/>
<stop offset="1" stop-color="#C5AAF3"/>
</linearGradient>
</defs>
</svg>
